<svg width="320" height="57" viewBox="0 0 320 57" fill="none" xmlns="http://www.w3.org/2000/svg">
<path d="M51.9133 26.6288L30.1131 5.54382L28 3.5L11.5897 19.372L4.08671 26.6288C3.30443 27.3864 3.30443 28.6136 4.08671 29.3712L19.0793 43.872L28 52.5L44.4103 36.628L44.6644 36.3823L51.9133 29.3712C52.6956 28.6136 52.6956 27.3864 51.9133 26.6288ZM28 35.2439L20.5104 28L28 20.7561L35.4896 28L28 35.2439Z" fill="#2684FF"/>
<path fill-rule="evenodd" clip-rule="evenodd" d="M28.0001 20.7561C23.0965 16.0127 23.0726 8.33002 27.9466 3.55823L11.5564 19.4043L20.477 28.0324L28.0001 20.7561Z" fill="url(#paint0_linear_0_5194)"/>
<path fill-rule="evenodd" clip-rule="evenodd" d="M35.5097 27.9806L28 35.2439C30.3668 37.5317 31.6966 40.6355 31.6966 43.872C31.6966 47.1084 30.3668 50.2122 28 52.5L44.4304 36.6086L35.5097 27.9806Z" fill="url(#paint1_linear_0_5194)"/>
<path fill-rule="evenodd" clip-rule="evenodd" d="M98.003 51.1311L91.9841 43.633C90.536 41.829 89.75 39.6106 89.75 37.3273V10.1762C89.75 6.75612 92.4863 3.9182 96.0162 3.67719L123.931 1.77132C125.959 1.63286 127.975 2.17191 129.641 3.29823L139.449 9.92935C141.204 11.1163 142.25 13.0567 142.25 15.1274V45.9956C142.25 49.3426 139.559 52.1138 136.103 52.3265L105.121 54.2337C102.363 54.4034 99.697 53.2414 98.003 51.1311Z" fill="white"/>
<path d="M107.684 23.7627V23.4073C107.684 22.5062 108.406 21.7589 109.336 21.6968L116.111 21.2445L125.48 35.0412V22.9323L123.068 22.6108V22.4419C123.068 21.5303 123.807 20.7781 124.749 20.7298L130.913 20.414V21.3011C130.913 21.7176 130.603 22.0738 130.179 22.1456L128.695 22.3965V42.0065L126.834 42.6467C125.278 43.1816 123.547 42.609 122.656 41.2655L113.561 27.5401V40.6402L116.36 41.176L116.321 41.4357C116.199 42.2491 115.497 42.8643 114.647 42.9021L107.684 43.212C107.592 42.3373 108.248 41.5547 109.152 41.4597L110.068 41.3635V23.8967L107.684 23.7627Z" fill="black"/>
<path fill-rule="evenodd" clip-rule="evenodd" d="M124.181 5.19187L96.2662 7.09774C94.5941 7.2119 93.298 8.55618 93.298 10.1762V37.3273C93.298 38.8495 93.822 40.3284 94.7874 41.5311L100.806 49.0292C101.779 50.2415 103.311 50.9091 104.895 50.8115L135.878 48.9044C137.466 48.8066 138.702 47.5334 138.702 45.9956V15.1275C138.702 14.176 138.221 13.2845 137.415 12.7391L127.607 6.10801C126.607 5.43222 125.398 5.10879 124.181 5.19187ZM97.6504 10.5997C97.2622 10.3123 97.447 9.71346 97.9347 9.67847L124.369 7.78244C125.211 7.72203 126.048 7.95396 126.729 8.43654L132.033 12.1942C132.234 12.3369 132.14 12.6449 131.891 12.6584L103.897 14.1809C103.05 14.227 102.213 13.9781 101.54 13.4794L97.6504 10.5997ZM102.584 18.9537C102.584 18.0443 103.319 17.2931 104.258 17.2419L133.855 15.63C134.771 15.5802 135.542 16.2843 135.542 17.1707V43.8992C135.542 44.807 134.81 45.5574 133.872 45.6108L104.462 47.2842C103.443 47.3422 102.584 46.5591 102.584 45.5726V18.9537Z" fill="black"/>
<path d="M222.375 26.2496C224.791 26.2496 226.75 24.291 226.75 21.875C226.75 19.459 224.791 17.5004 222.375 17.5004C219.959 17.5004 218 19.4591 218 21.8754V26.2496H222.375ZM210.125 26.2496C212.541 26.2496 214.5 24.2909 214.5 21.8746V9.62536C214.5 7.20912 212.541 5.25037 210.125 5.25037C207.709 5.25037 205.75 7.20912 205.75 9.62537V21.8746C205.75 24.2909 207.709 26.2496 210.125 26.2496Z" fill="#2EB67D"/>
<path d="M185.625 29.7504C183.209 29.7504 181.25 31.709 181.25 34.125C181.25 36.541 183.209 38.4996 185.625 38.4996C188.041 38.4996 190 36.5409 190 34.1246V29.7504H185.625ZM197.875 29.7504C195.459 29.7504 193.5 31.7091 193.5 34.1254V46.3746C193.5 48.7909 195.459 50.7496 197.875 50.7496C200.291 50.7496 202.25 48.7909 202.25 46.3746V34.1254C202.25 31.7091 200.291 29.7504 197.875 29.7504Z" fill="#E01E5A"/>
<path d="M205.75 46.3754C205.75 48.7914 207.709 50.75 210.125 50.75C212.541 50.75 214.5 48.7912 214.5 46.3752C214.5 43.9589 212.541 42 210.125 42L205.75 42L205.75 46.3754ZM205.75 34.125C205.75 36.5412 207.709 38.5 210.125 38.5L222.375 38.5C224.791 38.5 226.75 36.5412 226.75 34.125C226.75 31.7088 224.791 29.75 222.375 29.75L210.125 29.75C207.709 29.75 205.75 31.7088 205.75 34.125Z" fill="#ECB22E"/>
<path d="M202.25 9.62463C202.25 7.20859 200.291 5.25 197.875 5.25C195.459 5.25 193.5 7.20878 193.5 9.62481C193.5 12.0411 195.459 14 197.875 14L202.25 14L202.25 9.62463ZM202.25 21.875C202.25 19.4588 200.291 17.5 197.875 17.5L185.625 17.5C183.209 17.5 181.25 19.4588 181.25 21.875C181.25 24.2912 183.209 26.25 185.625 26.25L197.875 26.25C200.291 26.25 202.25 24.2912 202.25 21.875Z" fill="#36C5F0"/>
<g filter="url(#filter0_dd_0_5194)">
<circle cx="292" cy="28" r="24.5" fill="#0F287F"/>
<path fill-rule="evenodd" clip-rule="evenodd" d="M283.25 14L274.5 19.25L283.25 24.5L274.5 29.75L283.25 35L292 29.75L300.75 35L309.5 29.75L300.75 24.5L309.5 19.25L300.75 14L292 19.25L283.25 14ZM292 19.25L300.75 24.5L292 29.75L283.25 24.5L292 19.25Z" fill="#DAF8FE"/>
<path d="M283.25 38.5L292 33.25L300.75 38.5L292 43.75L283.25 38.5Z" fill="#DAF8FE"/>
</g>
<defs>
<filter id="filter0_dd_0_5194" x="261" y="-2" width="62" height="62" filterUnits="userSpaceOnUse" color-interpolation-filters="sRGB">
<feFlood flood-opacity="0" result="BackgroundImageFix"/>
<feColorMatrix in="SourceAlpha" type="matrix" values="0 0 0 0 0 0 0 0 0 0 0 0 0 0 0 0 0 0 127 0" result="hardAlpha"/>
<feMorphology radius="1" operator="erode" in="SourceAlpha" result="effect1_dropShadow_0_5194"/>
<feOffset dy="1"/>
<feGaussianBlur stdDeviation="1"/>
<feComposite in2="hardAlpha" operator="out"/>
<feColorMatrix type="matrix" values="0 0 0 0 0.0392157 0 0 0 0 0.0496732 0 0 0 0 0.0705882 0 0 0 0.1 0"/>
<feBlend mode="normal" in2="BackgroundImageFix" result="effect1_dropShadow_0_5194"/>
<feColorMatrix in="SourceAlpha" type="matrix" values="0 0 0 0 0 0 0 0 0 0 0 0 0 0 0 0 0 0 127 0" result="hardAlpha"/>
<feOffset dy="1"/>
<feGaussianBlur stdDeviation="1.5"/>
<feComposite in2="hardAlpha" operator="out"/>
<feColorMatrix type="matrix" values="0 0 0 0 0.0392157 0 0 0 0 0.0496732 0 0 0 0 0.0705882 0 0 0 0.1 0"/>
<feBlend mode="normal" in2="effect1_dropShadow_0_5194" result="effect2_dropShadow_0_5194"/>
<feBlend mode="normal" in="SourceGraphic" in2="effect2_dropShadow_0_5194" result="shape"/>
</filter>
<linearGradient id="paint0_linear_0_5194" x1="26.6627" y1="13.4281" x2="14.169" y2="18.883" gradientUnits="userSpaceOnUse">
<stop offset="0.18" stop-color="#0052CC"/>
<stop offset="1" stop-color="#2684FF"/>
</linearGradient>
<linearGradient id="paint1_linear_0_5194" x1="29.4311" y1="42.4878" x2="41.9022" y2="37.0716" gradientUnits="userSpaceOnUse">
<stop offset="0.18" stop-color="#0052CC"/>
<stop offset="1" stop-color="#2684FF"/>
</linearGradient>
</defs>
</svg>
